<mxfile host="app.diagrams.net" agent="Mozilla/5.0 (Windows NT 10.0; Win64; x64) AppleWebKit/537.36 (KHTML, like Gecko) Chrome/141.0.0.0 Safari/537.36 Edg/141.0.0.0" version="28.2.8">
  <diagram name="Página-1" id="1SX6mEdfh1E-_AnjdFq0">
    <mxGraphModel dx="2742" dy="1732" grid="1" gridSize="10" guides="1" tooltips="1" connect="1" arrows="1" fold="1" page="1" pageScale="1" pageWidth="827" pageHeight="1169" math="0" shadow="0">
      <root>
        <mxCell id="0" />
        <mxCell id="1" parent="0" />
        <mxCell id="grUZeRGfLb8_Iu2T6s7t-157" value="" style="group" parent="1" vertex="1" connectable="0">
          <mxGeometry x="620" y="1410" width="506" height="764.5" as="geometry" />
        </mxCell>
        <mxCell id="grUZeRGfLb8_Iu2T6s7t-138" value="" style="shape=folder;fontStyle=1;spacingTop=10;tabWidth=110;tabHeight=30;tabPosition=left;html=1;whiteSpace=wrap;perimeter=none;" parent="grUZeRGfLb8_Iu2T6s7t-157" vertex="1">
          <mxGeometry width="500" height="479.99999999999994" as="geometry" />
        </mxCell>
        <mxCell id="grUZeRGfLb8_Iu2T6s7t-139" value="Domain" style="text;html=1;align=center;verticalAlign=middle;resizable=0;points=[];autosize=1;strokeColor=none;fillColor=none;imageWidth=24;perimeter=none;" parent="grUZeRGfLb8_Iu2T6s7t-157" vertex="1">
          <mxGeometry x="15" y="3.512195121951219" width="59" height="26" as="geometry" />
        </mxCell>
        <mxCell id="grUZeRGfLb8_Iu2T6s7t-140" value="" style="group" parent="grUZeRGfLb8_Iu2T6s7t-157" vertex="1" connectable="0">
          <mxGeometry x="83.98" y="46.83" width="196.02" height="372.29" as="geometry" />
        </mxCell>
        <mxCell id="grUZeRGfLb8_Iu2T6s7t-141" value="" style="shape=folder;fontStyle=1;spacingTop=10;tabWidth=86;tabHeight=30;tabPosition=left;html=1;whiteSpace=wrap;fillColor=none;" parent="grUZeRGfLb8_Iu2T6s7t-140" vertex="1">
          <mxGeometry width="185.6424705882353" height="372.29" as="geometry" />
        </mxCell>
        <mxCell id="grUZeRGfLb8_Iu2T6s7t-142" value="Modelo" style="text;html=1;align=center;verticalAlign=middle;resizable=0;points=[];autosize=1;strokeColor=none;fillColor=none;imageWidth=24;perimeter=none;" parent="grUZeRGfLb8_Iu2T6s7t-140" vertex="1">
          <mxGeometry x="9.670196860339253" width="57" height="26" as="geometry" />
        </mxCell>
        <mxCell id="grUZeRGfLb8_Iu2T6s7t-143" value="«&lt;b&gt;Component&lt;/b&gt;»&lt;div&gt;Usuario&lt;/div&gt;" style="html=1;dropTarget=0;whiteSpace=wrap;" parent="grUZeRGfLb8_Iu2T6s7t-140" vertex="1">
          <mxGeometry x="19.36" y="45.66" width="150.64" height="35.12" as="geometry" />
        </mxCell>
        <mxCell id="grUZeRGfLb8_Iu2T6s7t-144" value="" style="shape=module;jettyWidth=8;jettyHeight=4;" parent="grUZeRGfLb8_Iu2T6s7t-143" vertex="1">
          <mxGeometry x="1" width="20" height="20" relative="1" as="geometry">
            <mxPoint x="-27" y="7" as="offset" />
          </mxGeometry>
        </mxCell>
        <mxCell id="grUZeRGfLb8_Iu2T6s7t-145" value="«&lt;b&gt;Component&lt;/b&gt;»&lt;div&gt;Producto&lt;/div&gt;" style="html=1;dropTarget=0;whiteSpace=wrap;" parent="grUZeRGfLb8_Iu2T6s7t-140" vertex="1">
          <mxGeometry x="19.36" y="88.97" width="150.64" height="35.12" as="geometry" />
        </mxCell>
        <mxCell id="grUZeRGfLb8_Iu2T6s7t-146" value="" style="shape=module;jettyWidth=8;jettyHeight=4;" parent="grUZeRGfLb8_Iu2T6s7t-145" vertex="1">
          <mxGeometry x="1" width="20" height="20" relative="1" as="geometry">
            <mxPoint x="-27" y="7" as="offset" />
          </mxGeometry>
        </mxCell>
        <mxCell id="grUZeRGfLb8_Iu2T6s7t-147" value="«&lt;b&gt;Component&lt;/b&gt;»&lt;div&gt;Inventario&lt;/div&gt;" style="html=1;dropTarget=0;whiteSpace=wrap;" parent="grUZeRGfLb8_Iu2T6s7t-140" vertex="1">
          <mxGeometry x="19.36" y="132.29" width="150.64" height="35.12" as="geometry" />
        </mxCell>
        <mxCell id="grUZeRGfLb8_Iu2T6s7t-148" value="" style="shape=module;jettyWidth=8;jettyHeight=4;" parent="grUZeRGfLb8_Iu2T6s7t-147" vertex="1">
          <mxGeometry x="1" width="20" height="20" relative="1" as="geometry">
            <mxPoint x="-27" y="7" as="offset" />
          </mxGeometry>
        </mxCell>
        <mxCell id="grUZeRGfLb8_Iu2T6s7t-151" value="«&lt;b&gt;Component&lt;/b&gt;»&lt;div&gt;Trasaccion&lt;/div&gt;" style="html=1;dropTarget=0;whiteSpace=wrap;" parent="grUZeRGfLb8_Iu2T6s7t-140" vertex="1">
          <mxGeometry x="19.36" y="313.76" width="150.64" height="35.12" as="geometry" />
        </mxCell>
        <mxCell id="grUZeRGfLb8_Iu2T6s7t-152" value="" style="shape=module;jettyWidth=8;jettyHeight=4;" parent="grUZeRGfLb8_Iu2T6s7t-151" vertex="1">
          <mxGeometry x="1" width="20" height="20" relative="1" as="geometry">
            <mxPoint x="-27" y="7" as="offset" />
          </mxGeometry>
        </mxCell>
        <mxCell id="grUZeRGfLb8_Iu2T6s7t-153" value="«&lt;b&gt;Component&lt;/b&gt;»&lt;div&gt;Material&lt;/div&gt;" style="html=1;dropTarget=0;whiteSpace=wrap;" parent="grUZeRGfLb8_Iu2T6s7t-140" vertex="1">
          <mxGeometry x="19.36" y="267.51" width="150.64" height="35.12" as="geometry" />
        </mxCell>
        <mxCell id="grUZeRGfLb8_Iu2T6s7t-154" value="" style="shape=module;jettyWidth=8;jettyHeight=4;" parent="grUZeRGfLb8_Iu2T6s7t-153" vertex="1">
          <mxGeometry x="1" width="20" height="20" relative="1" as="geometry">
            <mxPoint x="-27" y="7" as="offset" />
          </mxGeometry>
        </mxCell>
        <mxCell id="grUZeRGfLb8_Iu2T6s7t-155" value="«&lt;b&gt;Component&lt;/b&gt;»&lt;div&gt;Proveedor&lt;/div&gt;" style="html=1;dropTarget=0;whiteSpace=wrap;" parent="grUZeRGfLb8_Iu2T6s7t-140" vertex="1">
          <mxGeometry x="19.36" y="221.27" width="150.64" height="35.12" as="geometry" />
        </mxCell>
        <mxCell id="grUZeRGfLb8_Iu2T6s7t-156" value="" style="shape=module;jettyWidth=8;jettyHeight=4;" parent="grUZeRGfLb8_Iu2T6s7t-155" vertex="1">
          <mxGeometry x="1" width="20" height="20" relative="1" as="geometry">
            <mxPoint x="-27" y="7" as="offset" />
          </mxGeometry>
        </mxCell>
        <mxCell id="grUZeRGfLb8_Iu2T6s7t-149" value="«&lt;b&gt;Component&lt;/b&gt;»&lt;div&gt;Bodega&lt;/div&gt;" style="html=1;dropTarget=0;whiteSpace=wrap;" parent="grUZeRGfLb8_Iu2T6s7t-140" vertex="1">
          <mxGeometry x="19.36" y="175.61" width="150.64" height="35.12" as="geometry" />
        </mxCell>
        <mxCell id="grUZeRGfLb8_Iu2T6s7t-150" value="" style="shape=module;jettyWidth=8;jettyHeight=4;" parent="grUZeRGfLb8_Iu2T6s7t-149" vertex="1">
          <mxGeometry x="1" width="20" height="20" relative="1" as="geometry">
            <mxPoint x="-27" y="7" as="offset" />
          </mxGeometry>
        </mxCell>
        <mxCell id="grUZeRGfLb8_Iu2T6s7t-193" value="«&lt;b&gt;Component&lt;/b&gt;»&lt;div&gt;Enums&lt;/div&gt;" style="html=1;dropTarget=0;whiteSpace=wrap;" parent="grUZeRGfLb8_Iu2T6s7t-157" vertex="1">
          <mxGeometry x="300" y="373.81" width="150" height="45.31" as="geometry" />
        </mxCell>
        <mxCell id="grUZeRGfLb8_Iu2T6s7t-194" value="" style="shape=module;jettyWidth=8;jettyHeight=4;" parent="grUZeRGfLb8_Iu2T6s7t-193" vertex="1">
          <mxGeometry x="1" width="20" height="20" relative="1" as="geometry">
            <mxPoint x="-27" y="7" as="offset" />
          </mxGeometry>
        </mxCell>
        <mxCell id="grUZeRGfLb8_Iu2T6s7t-195" style="edgeStyle=orthogonalEdgeStyle;rounded=0;orthogonalLoop=1;jettySize=auto;html=1;exitX=1;exitY=0.5;exitDx=0;exitDy=0;entryX=0.5;entryY=0;entryDx=0;entryDy=0;" parent="grUZeRGfLb8_Iu2T6s7t-157" source="grUZeRGfLb8_Iu2T6s7t-149" target="grUZeRGfLb8_Iu2T6s7t-193" edge="1">
          <mxGeometry relative="1" as="geometry" />
        </mxCell>
        <mxCell id="grUZeRGfLb8_Iu2T6s7t-196" style="edgeStyle=orthogonalEdgeStyle;rounded=0;orthogonalLoop=1;jettySize=auto;html=1;exitX=1;exitY=0.5;exitDx=0;exitDy=0;entryX=0.5;entryY=0;entryDx=0;entryDy=0;" parent="grUZeRGfLb8_Iu2T6s7t-157" source="grUZeRGfLb8_Iu2T6s7t-155" target="grUZeRGfLb8_Iu2T6s7t-193" edge="1">
          <mxGeometry relative="1" as="geometry" />
        </mxCell>
        <mxCell id="grUZeRGfLb8_Iu2T6s7t-197" style="edgeStyle=orthogonalEdgeStyle;rounded=0;orthogonalLoop=1;jettySize=auto;html=1;exitX=1;exitY=0.5;exitDx=0;exitDy=0;entryX=0.5;entryY=0;entryDx=0;entryDy=0;" parent="grUZeRGfLb8_Iu2T6s7t-157" source="grUZeRGfLb8_Iu2T6s7t-153" target="grUZeRGfLb8_Iu2T6s7t-193" edge="1">
          <mxGeometry relative="1" as="geometry" />
        </mxCell>
        <mxCell id="grUZeRGfLb8_Iu2T6s7t-198" style="edgeStyle=orthogonalEdgeStyle;rounded=0;orthogonalLoop=1;jettySize=auto;html=1;exitX=1;exitY=0.5;exitDx=0;exitDy=0;entryX=0.5;entryY=0;entryDx=0;entryDy=0;" parent="grUZeRGfLb8_Iu2T6s7t-157" source="grUZeRGfLb8_Iu2T6s7t-151" target="grUZeRGfLb8_Iu2T6s7t-193" edge="1">
          <mxGeometry relative="1" as="geometry" />
        </mxCell>
        <mxCell id="grUZeRGfLb8_Iu2T6s7t-199" style="edgeStyle=orthogonalEdgeStyle;rounded=0;orthogonalLoop=1;jettySize=auto;html=1;exitX=1;exitY=0.25;exitDx=0;exitDy=0;entryX=0.5;entryY=0;entryDx=0;entryDy=0;" parent="grUZeRGfLb8_Iu2T6s7t-157" source="grUZeRGfLb8_Iu2T6s7t-147" target="grUZeRGfLb8_Iu2T6s7t-193" edge="1">
          <mxGeometry relative="1" as="geometry" />
        </mxCell>
        <mxCell id="grUZeRGfLb8_Iu2T6s7t-200" style="edgeStyle=orthogonalEdgeStyle;rounded=0;orthogonalLoop=1;jettySize=auto;html=1;exitX=1;exitY=0.25;exitDx=0;exitDy=0;entryX=0.5;entryY=0;entryDx=0;entryDy=0;" parent="grUZeRGfLb8_Iu2T6s7t-157" source="grUZeRGfLb8_Iu2T6s7t-145" target="grUZeRGfLb8_Iu2T6s7t-193" edge="1">
          <mxGeometry relative="1" as="geometry" />
        </mxCell>
        <mxCell id="grUZeRGfLb8_Iu2T6s7t-201" style="edgeStyle=orthogonalEdgeStyle;rounded=0;orthogonalLoop=1;jettySize=auto;html=1;exitX=1;exitY=0.25;exitDx=0;exitDy=0;" parent="grUZeRGfLb8_Iu2T6s7t-157" source="grUZeRGfLb8_Iu2T6s7t-143" target="grUZeRGfLb8_Iu2T6s7t-193" edge="1">
          <mxGeometry relative="1" as="geometry" />
        </mxCell>
        <mxCell id="grUZeRGfLb8_Iu2T6s7t-111" value="" style="shape=folder;fontStyle=1;spacingTop=10;tabWidth=40;tabHeight=14;tabPosition=left;html=1;whiteSpace=wrap;strokeColor=#000000;" parent="1" vertex="1">
          <mxGeometry x="620" y="550" width="680" height="390" as="geometry" />
        </mxCell>
        <mxCell id="grUZeRGfLb8_Iu2T6s7t-57" value="" style="shape=folder;fontStyle=1;spacingTop=10;tabWidth=40;tabHeight=14;tabPosition=left;html=1;whiteSpace=wrap;" parent="1" vertex="1">
          <mxGeometry x="620" y="980" width="680" height="410" as="geometry" />
        </mxCell>
        <mxCell id="grUZeRGfLb8_Iu2T6s7t-1" value="" style="shape=folder;fontStyle=1;spacingTop=10;tabWidth=40;tabHeight=14;tabPosition=left;html=1;whiteSpace=wrap;" parent="1" vertex="1">
          <mxGeometry x="460" y="310" width="430" height="210" as="geometry" />
        </mxCell>
        <mxCell id="grUZeRGfLb8_Iu2T6s7t-5" value="Infraestructura" style="shape=folder;fontStyle=1;spacingTop=10;tabWidth=40;tabHeight=14;tabPosition=left;html=1;whiteSpace=wrap;" parent="1" vertex="1">
          <mxGeometry x="1510" y="330" width="680" height="130" as="geometry" />
        </mxCell>
        <mxCell id="grUZeRGfLb8_Iu2T6s7t-213" style="edgeStyle=orthogonalEdgeStyle;rounded=0;orthogonalLoop=1;jettySize=auto;html=1;exitX=0;exitY=0.5;exitDx=0;exitDy=0;entryX=1;entryY=0;entryDx=0;entryDy=0;strokeColor=#FF0000;" parent="1" source="grUZeRGfLb8_Iu2T6s7t-14" target="grUZeRGfLb8_Iu2T6s7t-43" edge="1">
          <mxGeometry relative="1" as="geometry">
            <Array as="points">
              <mxPoint x="1400" y="380" />
              <mxPoint x="1400" y="730" />
            </Array>
          </mxGeometry>
        </mxCell>
        <mxCell id="grUZeRGfLb8_Iu2T6s7t-14" value="«&lt;b&gt;Component&lt;/b&gt;»&lt;div&gt;ExternalServiceAdapter&lt;/div&gt;" style="html=1;dropTarget=0;whiteSpace=wrap;" parent="1" vertex="1">
          <mxGeometry x="1520" y="360" width="180" height="40" as="geometry" />
        </mxCell>
        <mxCell id="grUZeRGfLb8_Iu2T6s7t-15" value="" style="shape=module;jettyWidth=8;jettyHeight=4;" parent="grUZeRGfLb8_Iu2T6s7t-14" vertex="1">
          <mxGeometry x="1" width="20" height="20" relative="1" as="geometry">
            <mxPoint x="-27" y="7" as="offset" />
          </mxGeometry>
        </mxCell>
        <mxCell id="grUZeRGfLb8_Iu2T6s7t-16" value="«&lt;b&gt;Component&lt;/b&gt;»&lt;div&gt;Utilitarios&lt;/div&gt;" style="html=1;dropTarget=0;whiteSpace=wrap;" parent="1" vertex="1">
          <mxGeometry x="1520" y="410" width="180" height="40" as="geometry" />
        </mxCell>
        <mxCell id="grUZeRGfLb8_Iu2T6s7t-17" value="" style="shape=module;jettyWidth=8;jettyHeight=4;" parent="grUZeRGfLb8_Iu2T6s7t-16" vertex="1">
          <mxGeometry x="1" width="20" height="20" relative="1" as="geometry">
            <mxPoint x="-27" y="7" as="offset" />
          </mxGeometry>
        </mxCell>
        <mxCell id="grUZeRGfLb8_Iu2T6s7t-87" style="edgeStyle=orthogonalEdgeStyle;rounded=0;orthogonalLoop=1;jettySize=auto;html=1;exitX=0.5;exitY=0;exitDx=0;exitDy=0;entryX=1.003;entryY=0.551;entryDx=0;entryDy=0;entryPerimeter=0;" parent="1" source="grUZeRGfLb8_Iu2T6s7t-18" target="grUZeRGfLb8_Iu2T6s7t-20" edge="1">
          <mxGeometry relative="1" as="geometry">
            <mxPoint x="880" y="472" as="targetPoint" />
            <Array as="points">
              <mxPoint x="2060" y="290" />
              <mxPoint x="940" y="290" />
              <mxPoint x="940" y="472" />
            </Array>
          </mxGeometry>
        </mxCell>
        <mxCell id="grUZeRGfLb8_Iu2T6s7t-88" style="edgeStyle=orthogonalEdgeStyle;rounded=0;orthogonalLoop=1;jettySize=auto;html=1;exitX=0.5;exitY=0;exitDx=0;exitDy=0;entryX=0.5;entryY=0;entryDx=0;entryDy=0;" parent="1" source="grUZeRGfLb8_Iu2T6s7t-18" target="grUZeRGfLb8_Iu2T6s7t-24" edge="1">
          <mxGeometry relative="1" as="geometry">
            <Array as="points">
              <mxPoint x="2060" y="290" />
              <mxPoint x="570" y="290" />
            </Array>
          </mxGeometry>
        </mxCell>
        <mxCell id="grUZeRGfLb8_Iu2T6s7t-18" value="«&lt;b&gt;Component&lt;/b&gt;»&lt;div&gt;ConfiguracionSeguridad&lt;/div&gt;" style="html=1;dropTarget=0;whiteSpace=wrap;" parent="1" vertex="1">
          <mxGeometry x="1960" y="360" width="200" height="40" as="geometry" />
        </mxCell>
        <mxCell id="grUZeRGfLb8_Iu2T6s7t-19" value="" style="shape=module;jettyWidth=8;jettyHeight=4;" parent="grUZeRGfLb8_Iu2T6s7t-18" vertex="1">
          <mxGeometry x="1" width="20" height="20" relative="1" as="geometry">
            <mxPoint x="-27" y="7" as="offset" />
          </mxGeometry>
        </mxCell>
        <mxCell id="grUZeRGfLb8_Iu2T6s7t-73" style="edgeStyle=orthogonalEdgeStyle;rounded=0;orthogonalLoop=1;jettySize=auto;html=1;exitX=0.5;exitY=1;exitDx=0;exitDy=0;entryX=0.25;entryY=0;entryDx=0;entryDy=0;strokeColor=#006600;" parent="1" source="grUZeRGfLb8_Iu2T6s7t-20" target="grUZeRGfLb8_Iu2T6s7t-51" edge="1">
          <mxGeometry relative="1" as="geometry" />
        </mxCell>
        <mxCell id="grUZeRGfLb8_Iu2T6s7t-221" value="Call" style="edgeLabel;html=1;align=center;verticalAlign=middle;resizable=0;points=[];" parent="grUZeRGfLb8_Iu2T6s7t-73" vertex="1" connectable="0">
          <mxGeometry x="0.7206" y="-2" relative="1" as="geometry">
            <mxPoint as="offset" />
          </mxGeometry>
        </mxCell>
        <mxCell id="grUZeRGfLb8_Iu2T6s7t-74" style="edgeStyle=orthogonalEdgeStyle;rounded=0;orthogonalLoop=1;jettySize=auto;html=1;entryX=0.5;entryY=0;entryDx=0;entryDy=0;strokeColor=#006600;" parent="1" source="grUZeRGfLb8_Iu2T6s7t-20" target="grUZeRGfLb8_Iu2T6s7t-45" edge="1">
          <mxGeometry relative="1" as="geometry">
            <Array as="points">
              <mxPoint x="784" y="580" />
              <mxPoint x="1110" y="580" />
            </Array>
          </mxGeometry>
        </mxCell>
        <mxCell id="grUZeRGfLb8_Iu2T6s7t-222" value="Call" style="edgeLabel;html=1;align=center;verticalAlign=middle;resizable=0;points=[];" parent="grUZeRGfLb8_Iu2T6s7t-74" vertex="1" connectable="0">
          <mxGeometry x="0.8486" relative="1" as="geometry">
            <mxPoint as="offset" />
          </mxGeometry>
        </mxCell>
        <mxCell id="grUZeRGfLb8_Iu2T6s7t-75" style="edgeStyle=orthogonalEdgeStyle;rounded=0;orthogonalLoop=1;jettySize=auto;html=1;entryX=0;entryY=0.5;entryDx=0;entryDy=0;strokeColor=#006600;" parent="1" source="grUZeRGfLb8_Iu2T6s7t-20" target="grUZeRGfLb8_Iu2T6s7t-53" edge="1">
          <mxGeometry relative="1" as="geometry">
            <Array as="points">
              <mxPoint x="784" y="580" />
              <mxPoint x="670" y="580" />
              <mxPoint x="670" y="760" />
            </Array>
          </mxGeometry>
        </mxCell>
        <mxCell id="grUZeRGfLb8_Iu2T6s7t-231" value="Call" style="edgeLabel;html=1;align=center;verticalAlign=middle;resizable=0;points=[];" parent="grUZeRGfLb8_Iu2T6s7t-75" vertex="1" connectable="0">
          <mxGeometry x="0.9362" relative="1" as="geometry">
            <mxPoint x="-13" y="-38" as="offset" />
          </mxGeometry>
        </mxCell>
        <mxCell id="grUZeRGfLb8_Iu2T6s7t-76" style="edgeStyle=orthogonalEdgeStyle;rounded=0;orthogonalLoop=1;jettySize=auto;html=1;exitX=0.5;exitY=1;exitDx=0;exitDy=0;entryX=1;entryY=0.5;entryDx=0;entryDy=0;strokeColor=#006600;" parent="1" source="grUZeRGfLb8_Iu2T6s7t-20" target="grUZeRGfLb8_Iu2T6s7t-43" edge="1">
          <mxGeometry relative="1" as="geometry">
            <Array as="points">
              <mxPoint x="784" y="580" />
              <mxPoint x="1260" y="580" />
              <mxPoint x="1260" y="756" />
            </Array>
          </mxGeometry>
        </mxCell>
        <mxCell id="grUZeRGfLb8_Iu2T6s7t-224" value="Call" style="edgeLabel;html=1;align=center;verticalAlign=middle;resizable=0;points=[];" parent="grUZeRGfLb8_Iu2T6s7t-76" vertex="1" connectable="0">
          <mxGeometry x="0.9114" y="-2" relative="1" as="geometry">
            <mxPoint as="offset" />
          </mxGeometry>
        </mxCell>
        <mxCell id="grUZeRGfLb8_Iu2T6s7t-77" style="edgeStyle=orthogonalEdgeStyle;rounded=0;orthogonalLoop=1;jettySize=auto;html=1;entryX=0;entryY=0.5;entryDx=0;entryDy=0;strokeColor=#006600;" parent="1" source="grUZeRGfLb8_Iu2T6s7t-20" target="grUZeRGfLb8_Iu2T6s7t-49" edge="1">
          <mxGeometry relative="1" as="geometry">
            <Array as="points">
              <mxPoint x="784" y="580" />
              <mxPoint x="650" y="580" />
              <mxPoint x="650" y="825" />
            </Array>
          </mxGeometry>
        </mxCell>
        <mxCell id="grUZeRGfLb8_Iu2T6s7t-232" value="Call" style="edgeLabel;html=1;align=center;verticalAlign=middle;resizable=0;points=[];" parent="grUZeRGfLb8_Iu2T6s7t-77" vertex="1" connectable="0">
          <mxGeometry x="0.6938" y="1" relative="1" as="geometry">
            <mxPoint as="offset" />
          </mxGeometry>
        </mxCell>
        <mxCell id="grUZeRGfLb8_Iu2T6s7t-78" style="edgeStyle=orthogonalEdgeStyle;rounded=0;orthogonalLoop=1;jettySize=auto;html=1;exitX=0.5;exitY=1;exitDx=0;exitDy=0;entryX=1;entryY=0.5;entryDx=0;entryDy=0;strokeColor=#006600;" parent="1" source="grUZeRGfLb8_Iu2T6s7t-20" target="grUZeRGfLb8_Iu2T6s7t-47" edge="1">
          <mxGeometry relative="1" as="geometry">
            <Array as="points">
              <mxPoint x="784" y="580" />
              <mxPoint x="1260" y="580" />
              <mxPoint x="1260" y="815" />
            </Array>
          </mxGeometry>
        </mxCell>
        <mxCell id="grUZeRGfLb8_Iu2T6s7t-223" value="Call" style="edgeLabel;html=1;align=center;verticalAlign=middle;resizable=0;points=[];" parent="grUZeRGfLb8_Iu2T6s7t-78" vertex="1" connectable="0">
          <mxGeometry x="0.9175" y="1" relative="1" as="geometry">
            <mxPoint as="offset" />
          </mxGeometry>
        </mxCell>
        <mxCell id="grUZeRGfLb8_Iu2T6s7t-79" style="edgeStyle=orthogonalEdgeStyle;rounded=0;orthogonalLoop=1;jettySize=auto;html=1;entryX=0.004;entryY=0.799;entryDx=0;entryDy=0;strokeColor=#006600;entryPerimeter=0;" parent="1" target="grUZeRGfLb8_Iu2T6s7t-55" edge="1">
          <mxGeometry relative="1" as="geometry">
            <mxPoint x="784.0023456790124" y="490" as="sourcePoint" />
            <mxPoint x="689.99" y="885" as="targetPoint" />
            <Array as="points">
              <mxPoint x="784" y="580" />
              <mxPoint x="640" y="580" />
              <mxPoint x="640" y="900" />
            </Array>
          </mxGeometry>
        </mxCell>
        <mxCell id="grUZeRGfLb8_Iu2T6s7t-225" value="Call" style="edgeLabel;html=1;align=center;verticalAlign=middle;resizable=0;points=[];" parent="grUZeRGfLb8_Iu2T6s7t-79" vertex="1" connectable="0">
          <mxGeometry x="0.7883" y="-1" relative="1" as="geometry">
            <mxPoint as="offset" />
          </mxGeometry>
        </mxCell>
        <mxCell id="grUZeRGfLb8_Iu2T6s7t-20" value="«&lt;b&gt;Component&lt;/b&gt;»&lt;div&gt;WebController&lt;/div&gt;" style="html=1;dropTarget=0;whiteSpace=wrap;" parent="1" vertex="1">
          <mxGeometry x="694" y="450" width="180" height="40" as="geometry" />
        </mxCell>
        <mxCell id="grUZeRGfLb8_Iu2T6s7t-21" value="" style="shape=module;jettyWidth=8;jettyHeight=4;" parent="grUZeRGfLb8_Iu2T6s7t-20" vertex="1">
          <mxGeometry x="1" width="20" height="20" relative="1" as="geometry">
            <mxPoint x="-27" y="7" as="offset" />
          </mxGeometry>
        </mxCell>
        <mxCell id="grUZeRGfLb8_Iu2T6s7t-80" style="edgeStyle=orthogonalEdgeStyle;rounded=0;orthogonalLoop=1;jettySize=auto;html=1;entryX=0;entryY=0.5;entryDx=0;entryDy=0;exitX=0.5;exitY=1;exitDx=0;exitDy=0;strokeColor=#FF8000;" parent="1" source="grUZeRGfLb8_Iu2T6s7t-24" target="grUZeRGfLb8_Iu2T6s7t-51" edge="1">
          <mxGeometry relative="1" as="geometry" />
        </mxCell>
        <mxCell id="grUZeRGfLb8_Iu2T6s7t-81" style="edgeStyle=orthogonalEdgeStyle;rounded=0;orthogonalLoop=1;jettySize=auto;html=1;exitX=0.5;exitY=1;exitDx=0;exitDy=0;entryX=0;entryY=0.25;entryDx=0;entryDy=0;strokeColor=#FF8000;" parent="1" source="grUZeRGfLb8_Iu2T6s7t-24" target="grUZeRGfLb8_Iu2T6s7t-53" edge="1">
          <mxGeometry relative="1" as="geometry" />
        </mxCell>
        <mxCell id="grUZeRGfLb8_Iu2T6s7t-82" style="edgeStyle=orthogonalEdgeStyle;rounded=0;orthogonalLoop=1;jettySize=auto;html=1;entryX=0;entryY=0.25;entryDx=0;entryDy=0;exitX=0.5;exitY=1;exitDx=0;exitDy=0;strokeColor=#FF8000;" parent="1" source="grUZeRGfLb8_Iu2T6s7t-24" target="grUZeRGfLb8_Iu2T6s7t-49" edge="1">
          <mxGeometry relative="1" as="geometry" />
        </mxCell>
        <mxCell id="grUZeRGfLb8_Iu2T6s7t-83" style="edgeStyle=orthogonalEdgeStyle;rounded=0;orthogonalLoop=1;jettySize=auto;html=1;entryX=0;entryY=0.25;entryDx=0;entryDy=0;exitX=0.5;exitY=1;exitDx=0;exitDy=0;strokeColor=#FF8000;" parent="1" source="grUZeRGfLb8_Iu2T6s7t-24" target="grUZeRGfLb8_Iu2T6s7t-55" edge="1">
          <mxGeometry relative="1" as="geometry" />
        </mxCell>
        <mxCell id="grUZeRGfLb8_Iu2T6s7t-85" style="edgeStyle=orthogonalEdgeStyle;rounded=0;orthogonalLoop=1;jettySize=auto;html=1;exitX=0.5;exitY=1;exitDx=0;exitDy=0;entryX=1;entryY=0.25;entryDx=0;entryDy=0;strokeColor=#FF8000;" parent="1" source="grUZeRGfLb8_Iu2T6s7t-24" target="grUZeRGfLb8_Iu2T6s7t-43" edge="1">
          <mxGeometry relative="1" as="geometry">
            <Array as="points">
              <mxPoint x="570" y="590" />
              <mxPoint x="1210" y="590" />
              <mxPoint x="1210" y="743" />
            </Array>
          </mxGeometry>
        </mxCell>
        <mxCell id="grUZeRGfLb8_Iu2T6s7t-86" style="edgeStyle=orthogonalEdgeStyle;rounded=0;orthogonalLoop=1;jettySize=auto;html=1;exitX=0.5;exitY=1;exitDx=0;exitDy=0;entryX=1;entryY=0.25;entryDx=0;entryDy=0;strokeColor=#FF8000;" parent="1" source="grUZeRGfLb8_Iu2T6s7t-24" target="grUZeRGfLb8_Iu2T6s7t-47" edge="1">
          <mxGeometry relative="1" as="geometry">
            <Array as="points">
              <mxPoint x="570" y="590" />
              <mxPoint x="1210" y="590" />
              <mxPoint x="1210" y="803" />
            </Array>
          </mxGeometry>
        </mxCell>
        <mxCell id="grUZeRGfLb8_Iu2T6s7t-24" value="«&lt;b&gt;Component&lt;/b&gt;»&lt;div&gt;RestController&lt;/div&gt;" style="html=1;dropTarget=0;whiteSpace=wrap;" parent="1" vertex="1">
          <mxGeometry x="480" y="340" width="180" height="40" as="geometry" />
        </mxCell>
        <mxCell id="grUZeRGfLb8_Iu2T6s7t-25" value="" style="shape=module;jettyWidth=8;jettyHeight=4;" parent="grUZeRGfLb8_Iu2T6s7t-24" vertex="1">
          <mxGeometry x="1" width="20" height="20" relative="1" as="geometry">
            <mxPoint x="-27" y="7" as="offset" />
          </mxGeometry>
        </mxCell>
        <mxCell id="grUZeRGfLb8_Iu2T6s7t-72" style="edgeStyle=orthogonalEdgeStyle;rounded=0;orthogonalLoop=1;jettySize=auto;html=1;exitX=0.5;exitY=1;exitDx=0;exitDy=0;entryX=0.5;entryY=0;entryDx=0;entryDy=0;" parent="1" source="grUZeRGfLb8_Iu2T6s7t-38" target="grUZeRGfLb8_Iu2T6s7t-20" edge="1">
          <mxGeometry relative="1" as="geometry" />
        </mxCell>
        <mxCell id="grUZeRGfLb8_Iu2T6s7t-38" value="«&lt;b&gt;Component&lt;/b&gt;»&lt;div&gt;ViewEngine&lt;/div&gt;" style="html=1;dropTarget=0;whiteSpace=wrap;" parent="1" vertex="1">
          <mxGeometry x="694" y="340" width="180" height="40" as="geometry" />
        </mxCell>
        <mxCell id="grUZeRGfLb8_Iu2T6s7t-39" value="" style="shape=module;jettyWidth=8;jettyHeight=4;" parent="grUZeRGfLb8_Iu2T6s7t-38" vertex="1">
          <mxGeometry x="1" width="20" height="20" relative="1" as="geometry">
            <mxPoint x="-27" y="7" as="offset" />
          </mxGeometry>
        </mxCell>
        <mxCell id="grUZeRGfLb8_Iu2T6s7t-202" style="edgeStyle=orthogonalEdgeStyle;rounded=0;orthogonalLoop=1;jettySize=auto;html=1;exitX=0.5;exitY=1;exitDx=0;exitDy=0;" parent="1" source="grUZeRGfLb8_Iu2T6s7t-41" target="grUZeRGfLb8_Iu2T6s7t-127" edge="1">
          <mxGeometry relative="1" as="geometry">
            <Array as="points">
              <mxPoint x="2060" y="1260" />
              <mxPoint x="970" y="1260" />
            </Array>
          </mxGeometry>
        </mxCell>
        <mxCell id="grUZeRGfLb8_Iu2T6s7t-41" value="«&lt;b&gt;Component&lt;/b&gt;»&lt;div&gt;DataBaseConfiguracion&lt;/div&gt;" style="html=1;dropTarget=0;whiteSpace=wrap;" parent="1" vertex="1">
          <mxGeometry x="1960" y="410" width="200" height="40" as="geometry" />
        </mxCell>
        <mxCell id="grUZeRGfLb8_Iu2T6s7t-42" value="" style="shape=module;jettyWidth=8;jettyHeight=4;" parent="grUZeRGfLb8_Iu2T6s7t-41" vertex="1">
          <mxGeometry x="1" width="20" height="20" relative="1" as="geometry">
            <mxPoint x="-27" y="7" as="offset" />
          </mxGeometry>
        </mxCell>
        <mxCell id="grUZeRGfLb8_Iu2T6s7t-116" style="edgeStyle=orthogonalEdgeStyle;rounded=0;orthogonalLoop=1;jettySize=auto;html=1;exitX=0;exitY=0.5;exitDx=0;exitDy=0;strokeColor=#7F00FF;" parent="1" source="grUZeRGfLb8_Iu2T6s7t-43" target="grUZeRGfLb8_Iu2T6s7t-59" edge="1">
          <mxGeometry relative="1" as="geometry">
            <Array as="points">
              <mxPoint x="1030" y="740" />
              <mxPoint x="950" y="740" />
            </Array>
          </mxGeometry>
        </mxCell>
        <mxCell id="grUZeRGfLb8_Iu2T6s7t-125" style="edgeStyle=orthogonalEdgeStyle;rounded=0;orthogonalLoop=1;jettySize=auto;html=1;exitX=0;exitY=0.75;exitDx=0;exitDy=0;entryX=0;entryY=0.75;entryDx=0;entryDy=0;strokeColor=#CC00CC;" parent="1" source="grUZeRGfLb8_Iu2T6s7t-43" target="grUZeRGfLb8_Iu2T6s7t-100" edge="1">
          <mxGeometry relative="1" as="geometry">
            <Array as="points">
              <mxPoint x="1010" y="769" />
              <mxPoint x="1010" y="1148" />
            </Array>
          </mxGeometry>
        </mxCell>
        <mxCell id="grUZeRGfLb8_Iu2T6s7t-216" value="Use" style="edgeLabel;html=1;align=center;verticalAlign=middle;resizable=0;points=[];" parent="grUZeRGfLb8_Iu2T6s7t-125" vertex="1" connectable="0">
          <mxGeometry x="0.0361" y="-1" relative="1" as="geometry">
            <mxPoint as="offset" />
          </mxGeometry>
        </mxCell>
        <mxCell id="grUZeRGfLb8_Iu2T6s7t-205" style="edgeStyle=orthogonalEdgeStyle;rounded=0;orthogonalLoop=1;jettySize=auto;html=1;exitX=1;exitY=0.75;exitDx=0;exitDy=0;" parent="1" source="grUZeRGfLb8_Iu2T6s7t-43" target="grUZeRGfLb8_Iu2T6s7t-16" edge="1">
          <mxGeometry relative="1" as="geometry">
            <mxPoint x="1610" y="450" as="targetPoint" />
          </mxGeometry>
        </mxCell>
        <mxCell id="grUZeRGfLb8_Iu2T6s7t-43" value="&lt;div&gt;«&lt;b&gt;Component&lt;/b&gt;»&lt;/div&gt;UsuarioService" style="html=1;dropTarget=0;whiteSpace=wrap;align=center;" parent="1" vertex="1">
          <mxGeometry x="1030" y="730" width="160" height="51.59" as="geometry" />
        </mxCell>
        <mxCell id="grUZeRGfLb8_Iu2T6s7t-44" value="" style="shape=module;jettyWidth=8;jettyHeight=4;align=center;" parent="grUZeRGfLb8_Iu2T6s7t-43" vertex="1">
          <mxGeometry x="1" width="20" height="20" relative="1" as="geometry">
            <mxPoint x="-27" y="7" as="offset" />
          </mxGeometry>
        </mxCell>
        <mxCell id="grUZeRGfLb8_Iu2T6s7t-114" style="edgeStyle=orthogonalEdgeStyle;rounded=0;orthogonalLoop=1;jettySize=auto;html=1;exitX=0;exitY=0.5;exitDx=0;exitDy=0;entryX=0.5;entryY=1;entryDx=0;entryDy=0;strokeColor=#7F00FF;" parent="1" source="grUZeRGfLb8_Iu2T6s7t-45" target="grUZeRGfLb8_Iu2T6s7t-59" edge="1">
          <mxGeometry relative="1" as="geometry">
            <Array as="points">
              <mxPoint x="1030" y="680" />
              <mxPoint x="950" y="680" />
            </Array>
          </mxGeometry>
        </mxCell>
        <mxCell id="grUZeRGfLb8_Iu2T6s7t-126" style="edgeStyle=orthogonalEdgeStyle;rounded=0;orthogonalLoop=1;jettySize=auto;html=1;exitX=0;exitY=0.75;exitDx=0;exitDy=0;entryX=0;entryY=0.75;entryDx=0;entryDy=0;strokeColor=#CC00CC;" parent="1" source="grUZeRGfLb8_Iu2T6s7t-45" target="grUZeRGfLb8_Iu2T6s7t-106" edge="1">
          <mxGeometry relative="1" as="geometry">
            <Array as="points">
              <mxPoint x="1020" y="707" />
              <mxPoint x="1020" y="1087" />
            </Array>
          </mxGeometry>
        </mxCell>
        <mxCell id="grUZeRGfLb8_Iu2T6s7t-214" value="Use" style="edgeLabel;html=1;align=center;verticalAlign=middle;resizable=0;points=[];" parent="grUZeRGfLb8_Iu2T6s7t-126" vertex="1" connectable="0">
          <mxGeometry x="0.0539" y="1" relative="1" as="geometry">
            <mxPoint as="offset" />
          </mxGeometry>
        </mxCell>
        <mxCell id="grUZeRGfLb8_Iu2T6s7t-204" style="edgeStyle=orthogonalEdgeStyle;rounded=0;orthogonalLoop=1;jettySize=auto;html=1;exitX=1;exitY=0.5;exitDx=0;exitDy=0;" parent="1" source="grUZeRGfLb8_Iu2T6s7t-45" target="grUZeRGfLb8_Iu2T6s7t-16" edge="1">
          <mxGeometry relative="1" as="geometry" />
        </mxCell>
        <mxCell id="grUZeRGfLb8_Iu2T6s7t-45" value="&lt;div&gt;«&lt;b&gt;Component&lt;/b&gt;»&lt;/div&gt;ProductoService" style="html=1;dropTarget=0;whiteSpace=wrap;align=center;" parent="1" vertex="1">
          <mxGeometry x="1030" y="670" width="160" height="50" as="geometry" />
        </mxCell>
        <mxCell id="grUZeRGfLb8_Iu2T6s7t-46" value="" style="shape=module;jettyWidth=8;jettyHeight=4;align=center;" parent="grUZeRGfLb8_Iu2T6s7t-45" vertex="1">
          <mxGeometry x="1" width="20" height="20" relative="1" as="geometry">
            <mxPoint x="-27" y="7" as="offset" />
          </mxGeometry>
        </mxCell>
        <mxCell id="grUZeRGfLb8_Iu2T6s7t-118" style="edgeStyle=orthogonalEdgeStyle;rounded=0;orthogonalLoop=1;jettySize=auto;html=1;exitX=0;exitY=0.25;exitDx=0;exitDy=0;strokeColor=#7F00FF;" parent="1" source="grUZeRGfLb8_Iu2T6s7t-47" target="grUZeRGfLb8_Iu2T6s7t-59" edge="1">
          <mxGeometry relative="1" as="geometry" />
        </mxCell>
        <mxCell id="grUZeRGfLb8_Iu2T6s7t-124" style="edgeStyle=orthogonalEdgeStyle;rounded=0;orthogonalLoop=1;jettySize=auto;html=1;exitX=0;exitY=0.75;exitDx=0;exitDy=0;entryX=0;entryY=0.75;entryDx=0;entryDy=0;strokeColor=#CC00CC;" parent="1" edge="1">
          <mxGeometry relative="1" as="geometry">
            <mxPoint x="1020" y="827.5" as="sourcePoint" />
            <mxPoint x="1020" y="1207.5" as="targetPoint" />
            <Array as="points">
              <mxPoint x="990" y="827" />
              <mxPoint x="990" y="1207" />
            </Array>
          </mxGeometry>
        </mxCell>
        <mxCell id="grUZeRGfLb8_Iu2T6s7t-215" value="Use" style="edgeLabel;html=1;align=center;verticalAlign=middle;resizable=0;points=[];" parent="grUZeRGfLb8_Iu2T6s7t-124" vertex="1" connectable="0">
          <mxGeometry x="-0.5755" relative="1" as="geometry">
            <mxPoint as="offset" />
          </mxGeometry>
        </mxCell>
        <mxCell id="grUZeRGfLb8_Iu2T6s7t-206" style="edgeStyle=orthogonalEdgeStyle;rounded=0;orthogonalLoop=1;jettySize=auto;html=1;exitX=1;exitY=0.75;exitDx=0;exitDy=0;entryX=0.5;entryY=1;entryDx=0;entryDy=0;" parent="1" source="grUZeRGfLb8_Iu2T6s7t-47" target="grUZeRGfLb8_Iu2T6s7t-16" edge="1">
          <mxGeometry relative="1" as="geometry" />
        </mxCell>
        <mxCell id="grUZeRGfLb8_Iu2T6s7t-47" value="«&lt;b&gt;Component&lt;/b&gt;»&lt;div&gt;InventarioService&lt;/div&gt;" style="html=1;dropTarget=0;whiteSpace=wrap;align=center;" parent="1" vertex="1">
          <mxGeometry x="1030" y="790" width="160" height="50" as="geometry" />
        </mxCell>
        <mxCell id="grUZeRGfLb8_Iu2T6s7t-48" value="" style="shape=module;jettyWidth=8;jettyHeight=4;align=center;" parent="grUZeRGfLb8_Iu2T6s7t-47" vertex="1">
          <mxGeometry x="1" width="20" height="20" relative="1" as="geometry">
            <mxPoint x="-27" y="7" as="offset" />
          </mxGeometry>
        </mxCell>
        <mxCell id="grUZeRGfLb8_Iu2T6s7t-117" style="edgeStyle=orthogonalEdgeStyle;rounded=0;orthogonalLoop=1;jettySize=auto;html=1;exitX=1;exitY=0.5;exitDx=0;exitDy=0;entryX=0.5;entryY=1;entryDx=0;entryDy=0;strokeColor=#7F00FF;" parent="1" source="grUZeRGfLb8_Iu2T6s7t-49" target="grUZeRGfLb8_Iu2T6s7t-59" edge="1">
          <mxGeometry relative="1" as="geometry" />
        </mxCell>
        <mxCell id="grUZeRGfLb8_Iu2T6s7t-49" value="«&lt;b&gt;Component&lt;/b&gt;»&lt;div&gt;BodegaService&lt;/div&gt;" style="html=1;dropTarget=0;whiteSpace=wrap;align=center;" parent="1" vertex="1">
          <mxGeometry x="690" y="800" width="180" height="50" as="geometry" />
        </mxCell>
        <mxCell id="grUZeRGfLb8_Iu2T6s7t-50" value="" style="shape=module;jettyWidth=8;jettyHeight=4;align=center;" parent="grUZeRGfLb8_Iu2T6s7t-49" vertex="1">
          <mxGeometry x="1" width="20" height="20" relative="1" as="geometry">
            <mxPoint x="-27" y="7" as="offset" />
          </mxGeometry>
        </mxCell>
        <mxCell id="grUZeRGfLb8_Iu2T6s7t-113" style="edgeStyle=orthogonalEdgeStyle;rounded=0;orthogonalLoop=1;jettySize=auto;html=1;exitX=1;exitY=0.5;exitDx=0;exitDy=0;entryX=0.5;entryY=1;entryDx=0;entryDy=0;strokeColor=#7F00FF;" parent="1" source="grUZeRGfLb8_Iu2T6s7t-51" target="grUZeRGfLb8_Iu2T6s7t-59" edge="1">
          <mxGeometry relative="1" as="geometry" />
        </mxCell>
        <mxCell id="grUZeRGfLb8_Iu2T6s7t-123" style="edgeStyle=orthogonalEdgeStyle;rounded=0;orthogonalLoop=1;jettySize=auto;html=1;exitX=1;exitY=0.75;exitDx=0;exitDy=0;entryX=1;entryY=0.75;entryDx=0;entryDy=0;strokeColor=#CC00CC;" parent="1" source="grUZeRGfLb8_Iu2T6s7t-51" target="grUZeRGfLb8_Iu2T6s7t-104" edge="1">
          <mxGeometry relative="1" as="geometry">
            <Array as="points">
              <mxPoint x="880" y="709" />
              <mxPoint x="880" y="1087" />
            </Array>
          </mxGeometry>
        </mxCell>
        <mxCell id="grUZeRGfLb8_Iu2T6s7t-219" value="Use" style="edgeLabel;html=1;align=center;verticalAlign=middle;resizable=0;points=[];" parent="grUZeRGfLb8_Iu2T6s7t-123" vertex="1" connectable="0">
          <mxGeometry x="0.5787" y="1" relative="1" as="geometry">
            <mxPoint as="offset" />
          </mxGeometry>
        </mxCell>
        <mxCell id="grUZeRGfLb8_Iu2T6s7t-212" style="edgeStyle=orthogonalEdgeStyle;rounded=0;orthogonalLoop=1;jettySize=auto;html=1;exitX=1;exitY=0.25;exitDx=0;exitDy=0;entryX=0.5;entryY=1;entryDx=0;entryDy=0;" parent="1" source="grUZeRGfLb8_Iu2T6s7t-51" target="grUZeRGfLb8_Iu2T6s7t-16" edge="1">
          <mxGeometry relative="1" as="geometry">
            <Array as="points">
              <mxPoint x="930" y="683" />
              <mxPoint x="930" y="860" />
              <mxPoint x="1610" y="860" />
            </Array>
          </mxGeometry>
        </mxCell>
        <mxCell id="grUZeRGfLb8_Iu2T6s7t-51" value="&lt;div&gt;«&lt;b&gt;Component&lt;/b&gt;»&lt;/div&gt;Proveedor&lt;span style=&quot;&quot;&gt;Service&lt;/span&gt;" style="html=1;dropTarget=0;whiteSpace=wrap;align=center;" parent="1" vertex="1">
          <mxGeometry x="690" y="670" width="180" height="51.59" as="geometry" />
        </mxCell>
        <mxCell id="grUZeRGfLb8_Iu2T6s7t-52" value="" style="shape=module;jettyWidth=8;jettyHeight=4;align=center;" parent="grUZeRGfLb8_Iu2T6s7t-51" vertex="1">
          <mxGeometry x="1" width="20" height="20" relative="1" as="geometry">
            <mxPoint x="-27" y="7" as="offset" />
          </mxGeometry>
        </mxCell>
        <mxCell id="grUZeRGfLb8_Iu2T6s7t-115" style="edgeStyle=orthogonalEdgeStyle;rounded=0;orthogonalLoop=1;jettySize=auto;html=1;exitX=1;exitY=0.5;exitDx=0;exitDy=0;entryX=0.5;entryY=1;entryDx=0;entryDy=0;strokeColor=#7F00FF;" parent="1" source="grUZeRGfLb8_Iu2T6s7t-53" target="grUZeRGfLb8_Iu2T6s7t-59" edge="1">
          <mxGeometry relative="1" as="geometry" />
        </mxCell>
        <mxCell id="grUZeRGfLb8_Iu2T6s7t-122" style="edgeStyle=orthogonalEdgeStyle;rounded=0;orthogonalLoop=1;jettySize=auto;html=1;exitX=1;exitY=0.75;exitDx=0;exitDy=0;entryX=1;entryY=0.75;entryDx=0;entryDy=0;strokeColor=#CC00CC;" parent="1" source="grUZeRGfLb8_Iu2T6s7t-53" target="grUZeRGfLb8_Iu2T6s7t-102" edge="1">
          <mxGeometry relative="1" as="geometry" />
        </mxCell>
        <mxCell id="grUZeRGfLb8_Iu2T6s7t-220" value="Use" style="edgeLabel;html=1;align=center;verticalAlign=middle;resizable=0;points=[];" parent="grUZeRGfLb8_Iu2T6s7t-122" vertex="1" connectable="0">
          <mxGeometry x="0.7594" y="-1" relative="1" as="geometry">
            <mxPoint as="offset" />
          </mxGeometry>
        </mxCell>
        <mxCell id="grUZeRGfLb8_Iu2T6s7t-209" style="edgeStyle=orthogonalEdgeStyle;rounded=0;orthogonalLoop=1;jettySize=auto;html=1;exitX=1;exitY=0.25;exitDx=0;exitDy=0;" parent="1" source="grUZeRGfLb8_Iu2T6s7t-53" target="grUZeRGfLb8_Iu2T6s7t-16" edge="1">
          <mxGeometry relative="1" as="geometry">
            <Array as="points">
              <mxPoint x="930" y="748" />
              <mxPoint x="930" y="860" />
              <mxPoint x="1610" y="860" />
            </Array>
          </mxGeometry>
        </mxCell>
        <mxCell id="grUZeRGfLb8_Iu2T6s7t-53" value="&lt;div&gt;&lt;span style=&quot;background-color: transparent; color: light-dark(rgb(0, 0, 0), rgb(255, 255, 255));&quot;&gt;«&lt;/span&gt;&lt;b style=&quot;background-color: transparent; color: light-dark(rgb(0, 0, 0), rgb(255, 255, 255));&quot;&gt;Component&lt;/b&gt;&lt;span style=&quot;background-color: transparent; color: light-dark(rgb(0, 0, 0), rgb(255, 255, 255));&quot;&gt;»&lt;/span&gt;&lt;/div&gt;&lt;div&gt;&lt;span style=&quot;background-color: transparent; color: light-dark(rgb(0, 0, 0), rgb(255, 255, 255));&quot;&gt;Material&lt;/span&gt;&lt;span style=&quot;background-color: transparent; color: light-dark(rgb(0, 0, 0), rgb(255, 255, 255));&quot;&gt;Service&lt;/span&gt;&lt;/div&gt;" style="html=1;dropTarget=0;whiteSpace=wrap;align=center;" parent="1" vertex="1">
          <mxGeometry x="690" y="735" width="180" height="50" as="geometry" />
        </mxCell>
        <mxCell id="grUZeRGfLb8_Iu2T6s7t-54" value="" style="shape=module;jettyWidth=8;jettyHeight=4;align=center;" parent="grUZeRGfLb8_Iu2T6s7t-53" vertex="1">
          <mxGeometry x="1" width="20" height="20" relative="1" as="geometry">
            <mxPoint x="-27" y="7" as="offset" />
          </mxGeometry>
        </mxCell>
        <mxCell id="grUZeRGfLb8_Iu2T6s7t-119" style="edgeStyle=orthogonalEdgeStyle;rounded=0;orthogonalLoop=1;jettySize=auto;html=1;exitX=1;exitY=0.5;exitDx=0;exitDy=0;entryX=0.5;entryY=1;entryDx=0;entryDy=0;strokeColor=#7F00FF;" parent="1" source="grUZeRGfLb8_Iu2T6s7t-55" target="grUZeRGfLb8_Iu2T6s7t-59" edge="1">
          <mxGeometry relative="1" as="geometry" />
        </mxCell>
        <mxCell id="grUZeRGfLb8_Iu2T6s7t-120" style="edgeStyle=orthogonalEdgeStyle;rounded=0;orthogonalLoop=1;jettySize=auto;html=1;exitX=1;exitY=0.75;exitDx=0;exitDy=0;entryX=1;entryY=0.75;entryDx=0;entryDy=0;strokeColor=#CC00CC;" parent="1" source="grUZeRGfLb8_Iu2T6s7t-55" target="grUZeRGfLb8_Iu2T6s7t-94" edge="1">
          <mxGeometry relative="1" as="geometry">
            <Array as="points">
              <mxPoint x="920" y="898" />
              <mxPoint x="920" y="1271" />
            </Array>
          </mxGeometry>
        </mxCell>
        <mxCell id="grUZeRGfLb8_Iu2T6s7t-218" value="Use" style="edgeLabel;html=1;align=center;verticalAlign=middle;resizable=0;points=[];" parent="grUZeRGfLb8_Iu2T6s7t-120" vertex="1" connectable="0">
          <mxGeometry x="0.1616" y="-1" relative="1" as="geometry">
            <mxPoint as="offset" />
          </mxGeometry>
        </mxCell>
        <mxCell id="grUZeRGfLb8_Iu2T6s7t-207" style="edgeStyle=orthogonalEdgeStyle;rounded=0;orthogonalLoop=1;jettySize=auto;html=1;exitX=0.5;exitY=1;exitDx=0;exitDy=0;entryX=0.5;entryY=1;entryDx=0;entryDy=0;" parent="1" source="grUZeRGfLb8_Iu2T6s7t-55" target="grUZeRGfLb8_Iu2T6s7t-16" edge="1">
          <mxGeometry relative="1" as="geometry">
            <mxPoint x="1610" y="480" as="targetPoint" />
          </mxGeometry>
        </mxCell>
        <mxCell id="grUZeRGfLb8_Iu2T6s7t-208" style="edgeStyle=orthogonalEdgeStyle;rounded=0;orthogonalLoop=1;jettySize=auto;html=1;exitX=1;exitY=0.25;exitDx=0;exitDy=0;entryX=0.5;entryY=1;entryDx=0;entryDy=0;" parent="1" source="grUZeRGfLb8_Iu2T6s7t-49" target="grUZeRGfLb8_Iu2T6s7t-16" edge="1">
          <mxGeometry relative="1" as="geometry">
            <mxPoint x="1610" y="480" as="targetPoint" />
            <Array as="points">
              <mxPoint x="930" y="813" />
              <mxPoint x="930" y="860" />
              <mxPoint x="1610" y="860" />
            </Array>
          </mxGeometry>
        </mxCell>
        <mxCell id="grUZeRGfLb8_Iu2T6s7t-55" value="«&lt;b&gt;Component&lt;/b&gt;»&lt;div&gt;Trasaccion&lt;span style=&quot;&quot;&gt;Service&lt;/span&gt;&lt;/div&gt;" style="html=1;dropTarget=0;whiteSpace=wrap;align=center;" parent="1" vertex="1">
          <mxGeometry x="690" y="860" width="180" height="50" as="geometry" />
        </mxCell>
        <mxCell id="grUZeRGfLb8_Iu2T6s7t-56" value="" style="shape=module;jettyWidth=8;jettyHeight=4;align=center;" parent="grUZeRGfLb8_Iu2T6s7t-55" vertex="1">
          <mxGeometry x="1" width="20" height="20" relative="1" as="geometry">
            <mxPoint x="-27" y="7" as="offset" />
          </mxGeometry>
        </mxCell>
        <mxCell id="grUZeRGfLb8_Iu2T6s7t-59" value="«&lt;b&gt;Component&lt;/b&gt;»&lt;div&gt;DTOMapper&lt;/div&gt;" style="html=1;dropTarget=0;whiteSpace=wrap;align=center;" parent="1" vertex="1">
          <mxGeometry x="880" y="600" width="140" height="50" as="geometry" />
        </mxCell>
        <mxCell id="grUZeRGfLb8_Iu2T6s7t-60" value="" style="shape=module;jettyWidth=8;jettyHeight=4;align=center;" parent="grUZeRGfLb8_Iu2T6s7t-59" vertex="1">
          <mxGeometry x="1" width="20" height="20" relative="1" as="geometry">
            <mxPoint x="-27" y="7" as="offset" />
          </mxGeometry>
        </mxCell>
        <mxCell id="grUZeRGfLb8_Iu2T6s7t-84" style="edgeStyle=orthogonalEdgeStyle;rounded=0;orthogonalLoop=1;jettySize=auto;html=1;exitX=0.5;exitY=1;exitDx=0;exitDy=0;entryX=0.331;entryY=0.02;entryDx=0;entryDy=0;entryPerimeter=0;strokeColor=#FF8000;" parent="1" source="grUZeRGfLb8_Iu2T6s7t-24" target="grUZeRGfLb8_Iu2T6s7t-45" edge="1">
          <mxGeometry relative="1" as="geometry">
            <Array as="points">
              <mxPoint x="570" y="590" />
              <mxPoint x="1083" y="590" />
            </Array>
          </mxGeometry>
        </mxCell>
        <mxCell id="grUZeRGfLb8_Iu2T6s7t-129" style="edgeStyle=orthogonalEdgeStyle;rounded=0;orthogonalLoop=1;jettySize=auto;html=1;exitX=0;exitY=0.5;exitDx=0;exitDy=0;entryX=0;entryY=0.5;entryDx=0;entryDy=0;" parent="1" source="grUZeRGfLb8_Iu2T6s7t-94" target="grUZeRGfLb8_Iu2T6s7t-127" edge="1">
          <mxGeometry relative="1" as="geometry">
            <Array as="points">
              <mxPoint x="660" y="1257" />
              <mxPoint x="660" y="1325" />
            </Array>
          </mxGeometry>
        </mxCell>
        <mxCell id="grUZeRGfLb8_Iu2T6s7t-94" value="«&lt;b&gt;Component&lt;/b&gt;»&lt;div&gt;Trasaccion&lt;span style=&quot;text-wrap-mode: nowrap;&quot;&gt;Repository&lt;/span&gt;&lt;/div&gt;" style="html=1;dropTarget=0;whiteSpace=wrap;" parent="1" vertex="1">
          <mxGeometry x="690" y="1230" width="181" height="55" as="geometry" />
        </mxCell>
        <mxCell id="grUZeRGfLb8_Iu2T6s7t-95" value="" style="shape=module;jettyWidth=8;jettyHeight=4;" parent="grUZeRGfLb8_Iu2T6s7t-94" vertex="1">
          <mxGeometry x="1" width="20" height="20" relative="1" as="geometry">
            <mxPoint x="-27" y="7" as="offset" />
          </mxGeometry>
        </mxCell>
        <mxCell id="grUZeRGfLb8_Iu2T6s7t-137" style="edgeStyle=orthogonalEdgeStyle;rounded=0;orthogonalLoop=1;jettySize=auto;html=1;exitX=1;exitY=0.5;exitDx=0;exitDy=0;entryX=1;entryY=0.5;entryDx=0;entryDy=0;" parent="1" source="grUZeRGfLb8_Iu2T6s7t-96" target="grUZeRGfLb8_Iu2T6s7t-127" edge="1">
          <mxGeometry relative="1" as="geometry" />
        </mxCell>
        <mxCell id="grUZeRGfLb8_Iu2T6s7t-162" style="edgeStyle=orthogonalEdgeStyle;rounded=0;orthogonalLoop=1;jettySize=auto;html=1;exitX=1;exitY=0.75;exitDx=0;exitDy=0;entryX=1;entryY=0.75;entryDx=0;entryDy=0;strokeColor=#0000FF;" parent="1" source="grUZeRGfLb8_Iu2T6s7t-96" target="grUZeRGfLb8_Iu2T6s7t-147" edge="1">
          <mxGeometry relative="1" as="geometry" />
        </mxCell>
        <mxCell id="grUZeRGfLb8_Iu2T6s7t-96" value="«&lt;b&gt;Component&lt;/b&gt;»&lt;div&gt;Inventario&lt;span style=&quot;text-wrap-mode: nowrap;&quot;&gt;Repository&lt;/span&gt;&lt;/div&gt;" style="html=1;dropTarget=0;whiteSpace=wrap;" parent="1" vertex="1">
          <mxGeometry x="1030" y="1170" width="160" height="50" as="geometry" />
        </mxCell>
        <mxCell id="grUZeRGfLb8_Iu2T6s7t-97" value="" style="shape=module;jettyWidth=8;jettyHeight=4;" parent="grUZeRGfLb8_Iu2T6s7t-96" vertex="1">
          <mxGeometry x="1" width="20" height="20" relative="1" as="geometry">
            <mxPoint x="-27" y="7" as="offset" />
          </mxGeometry>
        </mxCell>
        <mxCell id="grUZeRGfLb8_Iu2T6s7t-130" style="edgeStyle=orthogonalEdgeStyle;rounded=0;orthogonalLoop=1;jettySize=auto;html=1;exitX=0;exitY=0.5;exitDx=0;exitDy=0;entryX=0;entryY=0.5;entryDx=0;entryDy=0;" parent="1" source="grUZeRGfLb8_Iu2T6s7t-98" target="grUZeRGfLb8_Iu2T6s7t-127" edge="1">
          <mxGeometry relative="1" as="geometry">
            <Array as="points">
              <mxPoint x="660" y="1195" />
              <mxPoint x="660" y="1325" />
            </Array>
          </mxGeometry>
        </mxCell>
        <mxCell id="grUZeRGfLb8_Iu2T6s7t-159" style="edgeStyle=orthogonalEdgeStyle;rounded=0;orthogonalLoop=1;jettySize=auto;html=1;exitX=0;exitY=0.75;exitDx=0;exitDy=0;entryX=0;entryY=0.75;entryDx=0;entryDy=0;strokeColor=#0000FF;" parent="1" source="grUZeRGfLb8_Iu2T6s7t-98" target="grUZeRGfLb8_Iu2T6s7t-149" edge="1">
          <mxGeometry relative="1" as="geometry" />
        </mxCell>
        <mxCell id="grUZeRGfLb8_Iu2T6s7t-98" value="«&lt;b&gt;Component&lt;/b&gt;»&lt;div&gt;Bodega&lt;span style=&quot;text-wrap-mode: nowrap;&quot;&gt;Repository&lt;/span&gt;&lt;/div&gt;" style="html=1;dropTarget=0;whiteSpace=wrap;" parent="1" vertex="1">
          <mxGeometry x="689" y="1170" width="181" height="50" as="geometry" />
        </mxCell>
        <mxCell id="grUZeRGfLb8_Iu2T6s7t-99" value="" style="shape=module;jettyWidth=8;jettyHeight=4;" parent="grUZeRGfLb8_Iu2T6s7t-98" vertex="1">
          <mxGeometry x="1" width="20" height="20" relative="1" as="geometry">
            <mxPoint x="-27" y="7" as="offset" />
          </mxGeometry>
        </mxCell>
        <mxCell id="grUZeRGfLb8_Iu2T6s7t-136" style="edgeStyle=orthogonalEdgeStyle;rounded=0;orthogonalLoop=1;jettySize=auto;html=1;exitX=1;exitY=0.5;exitDx=0;exitDy=0;entryX=1;entryY=0.5;entryDx=0;entryDy=0;" parent="1" source="grUZeRGfLb8_Iu2T6s7t-100" target="grUZeRGfLb8_Iu2T6s7t-127" edge="1">
          <mxGeometry relative="1" as="geometry" />
        </mxCell>
        <mxCell id="grUZeRGfLb8_Iu2T6s7t-163" style="edgeStyle=orthogonalEdgeStyle;rounded=0;orthogonalLoop=1;jettySize=auto;html=1;exitX=1;exitY=0.75;exitDx=0;exitDy=0;entryX=1;entryY=0.75;entryDx=0;entryDy=0;strokeColor=#0000FF;" parent="1" source="grUZeRGfLb8_Iu2T6s7t-100" target="grUZeRGfLb8_Iu2T6s7t-145" edge="1">
          <mxGeometry relative="1" as="geometry" />
        </mxCell>
        <mxCell id="grUZeRGfLb8_Iu2T6s7t-100" value="«&lt;b&gt;Component&lt;/b&gt;»&lt;div&gt;Producto&lt;span style=&quot;text-wrap-mode: nowrap;&quot;&gt;Repository&lt;/span&gt;&lt;/div&gt;" style="html=1;dropTarget=0;whiteSpace=wrap;" parent="1" vertex="1">
          <mxGeometry x="1030" y="1110" width="160" height="50" as="geometry" />
        </mxCell>
        <mxCell id="grUZeRGfLb8_Iu2T6s7t-101" value="" style="shape=module;jettyWidth=8;jettyHeight=4;" parent="grUZeRGfLb8_Iu2T6s7t-100" vertex="1">
          <mxGeometry x="1" width="20" height="20" relative="1" as="geometry">
            <mxPoint x="-27" y="7" as="offset" />
          </mxGeometry>
        </mxCell>
        <mxCell id="grUZeRGfLb8_Iu2T6s7t-131" style="edgeStyle=orthogonalEdgeStyle;rounded=0;orthogonalLoop=1;jettySize=auto;html=1;exitX=0;exitY=0.5;exitDx=0;exitDy=0;entryX=0;entryY=0.5;entryDx=0;entryDy=0;" parent="1" source="grUZeRGfLb8_Iu2T6s7t-102" target="grUZeRGfLb8_Iu2T6s7t-127" edge="1">
          <mxGeometry relative="1" as="geometry">
            <Array as="points">
              <mxPoint x="660" y="1135" />
              <mxPoint x="660" y="1325" />
            </Array>
          </mxGeometry>
        </mxCell>
        <mxCell id="grUZeRGfLb8_Iu2T6s7t-160" style="edgeStyle=orthogonalEdgeStyle;rounded=0;orthogonalLoop=1;jettySize=auto;html=1;exitX=0;exitY=0.75;exitDx=0;exitDy=0;entryX=0;entryY=0.75;entryDx=0;entryDy=0;strokeColor=#0000FF;" parent="1" source="grUZeRGfLb8_Iu2T6s7t-102" target="grUZeRGfLb8_Iu2T6s7t-153" edge="1">
          <mxGeometry relative="1" as="geometry" />
        </mxCell>
        <mxCell id="grUZeRGfLb8_Iu2T6s7t-102" value="«&lt;b&gt;Component&lt;/b&gt;»&lt;div&gt;Material&lt;span style=&quot;text-wrap-mode: nowrap;&quot;&gt;Repository&lt;/span&gt;&lt;/div&gt;" style="html=1;dropTarget=0;whiteSpace=wrap;" parent="1" vertex="1">
          <mxGeometry x="689" y="1107.5" width="181" height="55" as="geometry" />
        </mxCell>
        <mxCell id="grUZeRGfLb8_Iu2T6s7t-103" value="" style="shape=module;jettyWidth=8;jettyHeight=4;" parent="grUZeRGfLb8_Iu2T6s7t-102" vertex="1">
          <mxGeometry x="1" width="20" height="20" relative="1" as="geometry">
            <mxPoint x="-27" y="7" as="offset" />
          </mxGeometry>
        </mxCell>
        <mxCell id="grUZeRGfLb8_Iu2T6s7t-133" style="edgeStyle=orthogonalEdgeStyle;rounded=0;orthogonalLoop=1;jettySize=auto;html=1;exitX=0;exitY=0.5;exitDx=0;exitDy=0;entryX=0;entryY=0.5;entryDx=0;entryDy=0;" parent="1" source="grUZeRGfLb8_Iu2T6s7t-104" target="grUZeRGfLb8_Iu2T6s7t-127" edge="1">
          <mxGeometry relative="1" as="geometry">
            <Array as="points">
              <mxPoint x="660" y="1075" />
              <mxPoint x="660" y="1325" />
            </Array>
          </mxGeometry>
        </mxCell>
        <mxCell id="grUZeRGfLb8_Iu2T6s7t-233" value="Manages" style="edgeLabel;html=1;align=center;verticalAlign=middle;resizable=0;points=[];" parent="grUZeRGfLb8_Iu2T6s7t-133" vertex="1" connectable="0">
          <mxGeometry x="0.4852" relative="1" as="geometry">
            <mxPoint as="offset" />
          </mxGeometry>
        </mxCell>
        <mxCell id="grUZeRGfLb8_Iu2T6s7t-161" style="edgeStyle=orthogonalEdgeStyle;rounded=0;orthogonalLoop=1;jettySize=auto;html=1;exitX=0;exitY=0.75;exitDx=0;exitDy=0;entryX=0;entryY=0.75;entryDx=0;entryDy=0;strokeColor=#0000FF;" parent="1" source="grUZeRGfLb8_Iu2T6s7t-104" target="grUZeRGfLb8_Iu2T6s7t-155" edge="1">
          <mxGeometry relative="1" as="geometry" />
        </mxCell>
        <mxCell id="grUZeRGfLb8_Iu2T6s7t-104" value="«&lt;b&gt;Component&lt;/b&gt;»&lt;div&gt;Proveedor&lt;span style=&quot;text-wrap-mode: nowrap;&quot;&gt;Repository&lt;/span&gt;&lt;/div&gt;" style="html=1;dropTarget=0;whiteSpace=wrap;" parent="1" vertex="1">
          <mxGeometry x="689" y="1050" width="181" height="50" as="geometry" />
        </mxCell>
        <mxCell id="grUZeRGfLb8_Iu2T6s7t-105" value="" style="shape=module;jettyWidth=8;jettyHeight=4;" parent="grUZeRGfLb8_Iu2T6s7t-104" vertex="1">
          <mxGeometry x="1" width="20" height="20" relative="1" as="geometry">
            <mxPoint x="-27" y="7" as="offset" />
          </mxGeometry>
        </mxCell>
        <mxCell id="grUZeRGfLb8_Iu2T6s7t-134" style="edgeStyle=orthogonalEdgeStyle;rounded=0;orthogonalLoop=1;jettySize=auto;html=1;exitX=1;exitY=0.5;exitDx=0;exitDy=0;entryX=1;entryY=0.5;entryDx=0;entryDy=0;" parent="1" source="grUZeRGfLb8_Iu2T6s7t-106" target="grUZeRGfLb8_Iu2T6s7t-127" edge="1">
          <mxGeometry relative="1" as="geometry">
            <Array as="points">
              <mxPoint x="1210" y="1075" />
              <mxPoint x="1210" y="1325" />
            </Array>
          </mxGeometry>
        </mxCell>
        <mxCell id="grUZeRGfLb8_Iu2T6s7t-234" value="Manages" style="edgeLabel;html=1;align=center;verticalAlign=middle;resizable=0;points=[];" parent="grUZeRGfLb8_Iu2T6s7t-134" vertex="1" connectable="0">
          <mxGeometry x="0.6508" y="1" relative="1" as="geometry">
            <mxPoint as="offset" />
          </mxGeometry>
        </mxCell>
        <mxCell id="grUZeRGfLb8_Iu2T6s7t-164" style="edgeStyle=orthogonalEdgeStyle;rounded=0;orthogonalLoop=1;jettySize=auto;html=1;exitX=1;exitY=0.75;exitDx=0;exitDy=0;entryX=1;entryY=0.75;entryDx=0;entryDy=0;strokeColor=#0000FF;" parent="1" source="grUZeRGfLb8_Iu2T6s7t-106" target="grUZeRGfLb8_Iu2T6s7t-143" edge="1">
          <mxGeometry relative="1" as="geometry" />
        </mxCell>
        <mxCell id="grUZeRGfLb8_Iu2T6s7t-106" value="«&lt;b&gt;Component&lt;/b&gt;»&lt;div&gt;Usuario&lt;span style=&quot;text-wrap-mode: nowrap;&quot;&gt;Repository&lt;/span&gt;&lt;/div&gt;" style="html=1;dropTarget=0;whiteSpace=wrap;" parent="1" vertex="1">
          <mxGeometry x="1030" y="1050" width="160" height="50" as="geometry" />
        </mxCell>
        <mxCell id="grUZeRGfLb8_Iu2T6s7t-107" value="" style="shape=module;jettyWidth=8;jettyHeight=4;" parent="grUZeRGfLb8_Iu2T6s7t-106" vertex="1">
          <mxGeometry x="1" width="20" height="20" relative="1" as="geometry">
            <mxPoint x="-27" y="7" as="offset" />
          </mxGeometry>
        </mxCell>
        <mxCell id="grUZeRGfLb8_Iu2T6s7t-121" style="edgeStyle=orthogonalEdgeStyle;rounded=0;orthogonalLoop=1;jettySize=auto;html=1;exitX=1;exitY=0.75;exitDx=0;exitDy=0;entryX=0.997;entryY=0.874;entryDx=0;entryDy=0;entryPerimeter=0;strokeColor=#CC00CC;" parent="1" source="grUZeRGfLb8_Iu2T6s7t-49" target="grUZeRGfLb8_Iu2T6s7t-98" edge="1">
          <mxGeometry relative="1" as="geometry">
            <Array as="points">
              <mxPoint x="900" y="837" />
              <mxPoint x="900" y="1214" />
            </Array>
          </mxGeometry>
        </mxCell>
        <mxCell id="grUZeRGfLb8_Iu2T6s7t-217" value="Use" style="edgeLabel;html=1;align=center;verticalAlign=middle;resizable=0;points=[];" parent="grUZeRGfLb8_Iu2T6s7t-121" vertex="1" connectable="0">
          <mxGeometry x="0.7239" y="-1" relative="1" as="geometry">
            <mxPoint as="offset" />
          </mxGeometry>
        </mxCell>
        <mxCell id="grUZeRGfLb8_Iu2T6s7t-127" value="«&lt;b&gt;Component&lt;/b&gt;»&lt;div&gt;JPAEntityManager&lt;/div&gt;" style="html=1;dropTarget=0;whiteSpace=wrap;" parent="1" vertex="1">
          <mxGeometry x="890" y="1300" width="160" height="50" as="geometry" />
        </mxCell>
        <mxCell id="grUZeRGfLb8_Iu2T6s7t-128" value="" style="shape=module;jettyWidth=8;jettyHeight=4;" parent="grUZeRGfLb8_Iu2T6s7t-127" vertex="1">
          <mxGeometry x="1" width="20" height="20" relative="1" as="geometry">
            <mxPoint x="-27" y="7" as="offset" />
          </mxGeometry>
        </mxCell>
        <mxCell id="grUZeRGfLb8_Iu2T6s7t-158" style="edgeStyle=orthogonalEdgeStyle;rounded=0;orthogonalLoop=1;jettySize=auto;html=1;exitX=0;exitY=0.75;exitDx=0;exitDy=0;strokeColor=#0000FF;" parent="1" source="grUZeRGfLb8_Iu2T6s7t-94" edge="1">
          <mxGeometry relative="1" as="geometry">
            <mxPoint x="713.98" y="1271.25" as="sourcePoint" />
            <mxPoint x="720" y="1788" as="targetPoint" />
            <Array as="points">
              <mxPoint x="670" y="1271" />
              <mxPoint x="670" y="1788" />
            </Array>
          </mxGeometry>
        </mxCell>
        <mxCell id="grUZeRGfLb8_Iu2T6s7t-203" style="edgeStyle=orthogonalEdgeStyle;rounded=0;orthogonalLoop=1;jettySize=auto;html=1;exitX=0.75;exitY=0;exitDx=0;exitDy=0;entryX=0.599;entryY=0.995;entryDx=0;entryDy=0;entryPerimeter=0;" parent="1" source="grUZeRGfLb8_Iu2T6s7t-127" target="grUZeRGfLb8_Iu2T6s7t-41" edge="1">
          <mxGeometry relative="1" as="geometry">
            <Array as="points">
              <mxPoint x="1010" y="1280" />
              <mxPoint x="2080" y="1280" />
              <mxPoint x="2080" y="450" />
            </Array>
          </mxGeometry>
        </mxCell>
        <mxCell id="ulM-jwW1EjK0G4EVlrwA-1" value="&lt;font style=&quot;font-size: 50px;&quot;&gt;SICOFAR-K - Diagrama de Componente&amp;nbsp;&lt;/font&gt;&lt;span style=&quot;text-wrap-mode: nowrap; font-family: Tahoma; background-color: transparent; color: light-dark(rgb(0, 0, 0), rgb(255, 255, 255));&quot;&gt;&lt;font style=&quot;font-size: 50px;&quot;&gt;v1.0&amp;nbsp;&amp;nbsp;&lt;/font&gt;&lt;/span&gt;&lt;div&gt;&lt;font style=&quot;&quot;&gt;&lt;div style=&quot;font-family: Helvetica; text-wrap-mode: nowrap;&quot;&gt;&lt;font style=&quot;font-size: 50px;&quot; face=&quot;Tahoma&quot;&gt;&amp;nbsp;Responsable: Equipo de Desarrollo&lt;/font&gt;&lt;/div&gt;&lt;/font&gt;&lt;/div&gt;" style="text;html=1;whiteSpace=wrap;strokeColor=none;fillColor=none;align=center;verticalAlign=middle;rounded=0;fontFamily=Inter;fontSource=https%3A%2F%2Ffonts.googleapis.com%2Fcss%3Ffamily%3DInter;" vertex="1" parent="1">
          <mxGeometry x="680" y="70" width="1150" height="170" as="geometry" />
        </mxCell>
      </root>
    </mxGraphModel>
  </diagram>
</mxfile>
